<?xml version="1.0" standalone="no"?><!DOCTYPE svg PUBLIC "-//W3C//DTD SVG 1.1//EN" "http://www.w3.org/Graphics/SVG/1.1/DTD/svg11.dtd"><svg t="1505440615707" class="icon" style="" viewBox="0 0 1024 1024" version="1.1" xmlns="http://www.w3.org/2000/svg" p-id="2341" xmlns:xlink="http://www.w3.org/1999/xlink" width="200" height="200"><defs><style type="text/css"></style></defs><path d="M512 0C229.248 0 0 229.248 0 512s229.248 512 512 512c282.784 0 512-229.248 512-512S794.784 0 512 0zM800.432 544 544 544l0 256.432C544 817.872 529.664 832 512 832c-17.68 0-32-14.128-32-31.568L480 544 223.568 544C206.128 544 192 529.664 192 512c0-17.68 14.16-32 31.568-32L480 480 480 223.536C480 206.128 494.32 192 512 192c17.664 0 32 14.128 32 31.536L544 480l256.432 0C817.904 480 832 494.32 832 512 832 529.664 817.904 544 800.432 544z" p-id="2342" fill="#1afa29"></path></svg>